<svg xmlns="http://www.w3.org/2000/svg" width="168" height="190" viewBox="0 0 168 190">
  <ellipse cx="84" cy="172" rx="42" ry="7" fill="#273240" opacity="0.18"/>
  <line x1="130" y1="92" x2="130" y2="150" stroke="#6f4a2e" stroke-width="5" stroke-linecap="round"/>
  <circle cx="130" cy="77" r="8" fill="#8ad8ff" stroke="#e8f8ff" stroke-width="2"/>
  <path d="M60 92 C47 113 43 145 38 168 L130 168 C125 143 121 113 108 92 Z" fill="#33409a" stroke="#1e2b68" stroke-width="3"/>
  <path d="M84 101 L84 165 M58 130 L111 130" stroke="#bfd9ff" stroke-width="3" stroke-linecap="round"/>
  <ellipse cx="84" cy="75" rx="40" ry="42" fill="#78c7ed"/>
  <rect x="41" y="67" width="18" height="56" rx="9" fill="#78c7ed"/>
  <rect x="109" y="67" width="18" height="55" rx="9" fill="#78c7ed"/>
  <ellipse cx="84" cy="78" rx="32" ry="33" fill="#ffe6d4" stroke="#7e5a55" stroke-width="2"/>
  <ellipse cx="59" cy="68" rx="9" ry="24" fill="#7acbf0"/>
  <ellipse cx="74" cy="64" rx="10" ry="26" fill="#7acbf0"/>
  <ellipse cx="93" cy="64" rx="11" ry="27" fill="#7acbf0"/>
  <ellipse cx="109" cy="69" rx="9" ry="23" fill="#7acbf0"/>
  <path d="M31 48 C54 33 113 33 137 48 C115 59 52 59 31 48 Z" fill="#2c3477" stroke="#172052" stroke-width="3"/>
  <path d="M55 43 C68 12 80 4 98 9 C91 25 103 31 116 43 Z" fill="#33409a" stroke="#172052" stroke-width="3"/>
  <line x1="63" y1="34" x2="108" y2="35" stroke="#e7d36b" stroke-width="3" stroke-linecap="round"/>
  <circle cx="88" cy="28" r="4" fill="#f3da67"/>
  <ellipse cx="71" cy="74" rx="4" ry="6" fill="#263d75"/>
  <ellipse cx="99" cy="74" rx="4" ry="6" fill="#263d75"/>
  <path d="M79 88 L91 88" stroke="#c77e83" stroke-width="2" stroke-linecap="round"/>
  <text x="84" y="158" text-anchor="middle" font-family="Arial, sans-serif" font-size="9" font-weight="700" fill="#263142">Roxy</text>
</svg>
